<?xml version="1.0" encoding="UTF-8" standalone="no"?>
<!-- Created with Inkscape (http://www.inkscape.org/) -->

<svg
   xmlns:dc="http://purl.org/dc/elements/1.1/"
   xmlns:cc="http://creativecommons.org/ns#"
   xmlns:rdf="http://www.w3.org/1999/02/22-rdf-syntax-ns#"
   xmlns:svg="http://www.w3.org/2000/svg"
   xmlns="http://www.w3.org/2000/svg"
   xmlns:sodipodi="http://sodipodi.sourceforge.net/DTD/sodipodi-0.dtd"
   xmlns:inkscape="http://www.inkscape.org/namespaces/inkscape"
   width="399.30621"
   height="128.364"
   viewBox="0 0 105.64977 33.962973"
   version="1.1"
   id="svg8"
   inkscape:version="0.92.0 r15299"
   sodipodi:docname="cypress semi 2017.svg">
  <defs
     id="defs2">
    <style
       id="style10">.cls-1{fill:#005697;}.cls-2{fill:#e32726;}.cls-3{fill:#00aae9;}</style>
  </defs>
  <sodipodi:namedview
     id="base"
     pagecolor="#ffffff"
     bordercolor="#666666"
     borderopacity="1.0"
     inkscape:pageopacity="0.0"
     inkscape:pageshadow="2"
     inkscape:zoom="1.9651815"
     inkscape:cx="204.05242"
     inkscape:cy="63.181971"
     inkscape:document-units="mm"
     inkscape:current-layer="layer1"
     showgrid="false"
     fit-margin-top="0"
     fit-margin-left="0"
     fit-margin-right="0"
     fit-margin-bottom="0"
     units="px"
     inkscape:window-width="1280"
     inkscape:window-height="744"
     inkscape:window-x="-4"
     inkscape:window-y="-4"
     inkscape:window-maximized="1" />
  <metadata
     id="metadata5">
    <rdf:RDF>
      <cc:Work
         rdf:about="">
        <dc:format>image/svg+xml</dc:format>
        <dc:type
           rdf:resource="http://purl.org/dc/dcmitype/StillImage" />
        <dc:title></dc:title>
      </cc:Work>
    </rdf:RDF>
  </metadata>
  <g
     inkscape:label="Layer 1"
     inkscape:groupmode="layer"
     id="layer1"
     transform="translate(-167.50518,-312.25988)">
    <g
       id="g187"
       transform="translate(0.26458154,-0.2645758)">
      <path
         id="path16"
         d="m 212.50415,333.61015 a 3.952875,3.952875 0 0 1 -3.96875,3.96875 h -0.34396 a 3.952875,3.952875 0 0 1 -3.96875,-3.96875 v -8.20208 a 3.952875,3.952875 0 0 1 3.96875,-3.96875 h 0.34396 a 3.9158333,3.9158333 0 0 1 3.96875,3.96875 v 1.40494 a 0.22754166,0.22754166 0 0 1 -0.26459,0.26458 h -1.97114 a 0.22754166,0.22754166 0 0 1 -0.26459,-0.26458 v -1.41023 a 1.4631458,1.4631458 0 0 0 -1.47902,-1.47902 h -0.34395 a 1.4631458,1.4631458 0 0 0 -1.47903,1.47902 v 8.20208 a 1.5001875,1.5001875 0 0 0 1.47903,1.47902 h 0.34395 a 1.4657916,1.4657916 0 0 0 1.47902,-1.47902 v -1.40758 q 0,-0.27782 0.26459,-0.27782 h 1.97114 q 0.26459,0 0.26459,0.27782 z"
         class="cls-1"
         inkscape:connector-curvature="0"
         style="fill:#005697;stroke-width:0.26458332" />
      <path
         id="path18"
         d="m 222.01063,321.82032 c 0,0.0132 -0.43921,1.32292 -1.36525,3.78883 l -1.54517,4.64344 a 0.48418749,0.48418749 0 0 0 -0.0344,0.21431 v 6.7019 a 0.22754166,0.22754166 0 0 1 -0.26458,0.26458 h -1.97115 a 0.22754166,0.22754166 0 0 1 -0.26458,-0.26458 v -6.69131 a 1.1959167,1.1959167 0 0 0 -0.0423,-0.23548 c -0.127,-0.32809 -0.64559,-2.2225 -1.55046,-4.65402 l -1.3626,-3.76767 a 0.16933333,0.16933333 0 0 1 0.16933,-0.23548 h 2.11667 a 0.34925,0.34925 0 0 1 0.36512,0.23548 l 1.41817,4.3471 c 0.0265,0.045 0.0582,0.09 0.11641,0.09 a 0.127,0.127 0 0 0 0.11377,-0.09 l 1.45521,-4.3471 a 0.33072916,0.33072916 0 0 1 0.34132,-0.23548 h 2.11666 a 0.16933333,0.16933333 0 0 1 0.18786,0.23548 z"
         class="cls-1"
         inkscape:connector-curvature="0"
         style="fill:#005697;stroke-width:0.26458332" />
      <path
         id="path20"
         d="m 231.89017,327.57765 a 3.952875,3.952875 0 0 1 -3.96875,3.96875 h -1.56369 a 0.22754166,0.22754166 0 0 0 -0.26458,0.26459 v 5.35781 a 0.22754166,0.22754166 0 0 1 -0.26459,0.26458 h -1.96585 a 0.22754166,0.22754166 0 0 1 -0.26458,-0.26458 v -15.34584 a 0.22754166,0.22754166 0 0 1 0.26458,-0.26458 h 4.05077 a 3.9158333,3.9158333 0 0 1 3.96875,3.96875 z m -2.48709,0 v -2.04787 a 1.4657916,1.4657916 0 0 0 -1.47902,-1.47902 h -1.56368 q -0.26459,0 -0.26459,0.27781 v 4.45029 q 0,0.27781 0.26459,0.27781 h 1.56368 a 1.4631458,1.4631458 0 0 0 1.47902,-1.47902 z"
         class="cls-1"
         inkscape:connector-curvature="0"
         style="fill:#005697;stroke-width:0.26458332" />
      <path
         id="path22"
         d="m 242.14806,337.1688 c 0.045,0.17462 -0.045,0.26458 -0.17198,0.26458 h -1.97379 a 0.32014583,0.32014583 0 0 1 -0.31485,-0.26458 l -1.5875,-5.91079 a 0.33866666,0.33866666 0 0 0 -0.34661,-0.26459 h -1.08214 c -0.18786,0 -0.28046,0.0873 -0.28046,0.26459 v 5.91079 a 0.22754166,0.22754166 0 0 1 -0.26458,0.26458 H 234.155 a 0.22754166,0.22754166 0 0 1 -0.26458,-0.26458 v -15.36436 a 0.2301875,0.2301875 0 0 1 0.26458,-0.24077 h 4.05077 a 3.8047083,3.8047083 0 0 1 2.80723,1.16682 3.8602708,3.8602708 0 0 1 1.15623,2.81781 v 1.6801 q 0,1.778 -1.56369,3.13002 a 0.31485416,0.31485416 0 0 0 -0.15081,0.29898 c 0,0.0847 0.26458,1.23561 0.81492,3.07975 z m -2.43152,-9.94304 v -1.73567 a 1.4684375,1.4684375 0 0 0 -1.47902,-1.48431 h -1.5875 q -0.27781,0 -0.27781,0.26458 v 4.18042 a 0.2460625,0.2460625 0 0 0 0.27781,0.28046 h 1.5875 a 1.4657916,1.4657916 0 0 0 1.47902,-1.48432 z"
         class="cls-1"
         inkscape:connector-curvature="0"
         style="fill:#005697;stroke-width:0.26458332" />
      <path
         id="path24"
         d="m 252.12285,337.1688 a 0.22754166,0.22754166 0 0 1 -0.26458,0.26458 h -7.35806 a 0.22754166,0.22754166 0 0 1 -0.26458,-0.26458 v -15.32467 a 0.22754166,0.22754166 0 0 1 0.26458,-0.26458 h 7.37394 a 0.22754166,0.22754166 0 0 1 0.26458,0.26458 v 1.97115 a 0.22754166,0.22754166 0 0 1 -0.26458,0.26458 h -4.87363 q -0.27781,0 -0.27781,0.26458 v 3.66977 q 0,0.26459 0.27781,0.26459 h 3.83646 c 0.17198,0 0.26458,0.0926 0.26458,0.26458 v 1.93411 q 0,0.26458 -0.26458,0.26458 h -3.83646 q -0.27781,0 -0.27781,0.26458 v 3.67506 q 0,0.26459 0.27781,0.26459 h 4.86569 a 0.22754166,0.22754166 0 0 1 0.26458,0.26458 z"
         class="cls-1"
         inkscape:connector-curvature="0"
         style="fill:#005697;stroke-width:0.26458332" />
      <path
         id="path26"
         d="m 262.33313,333.61015 a 3.952875,3.952875 0 0 1 -3.96875,3.96875 h -0.34396 a 3.952875,3.952875 0 0 1 -3.96875,-3.96875 v -1.09273 q 0,-0.27781 0.26458,-0.27781 h 1.97115 q 0.26458,0 0.26458,0.27781 v 1.09273 a 1.5001875,1.5001875 0 0 0 1.47902,1.47902 h 0.34396 a 1.4234583,1.4234583 0 0 0 1.05833,-0.43127 1.4419791,1.4419791 0 0 0 0.42863,-1.05833 2.0293541,2.0293541 0 0 0 -0.64559,-1.61925 q -1.00806,-0.85461 -3.62743,-3.12208 a 4.3894374,4.3894374 0 0 1 -1.51342,-3.46605 3.9475833,3.9475833 0 0 1 3.96875,-3.96875 h 0.34396 a 3.9158333,3.9158333 0 0 1 3.96875,3.96875 v 1.15623 q 0,0.27782 -0.26459,0.27782 h -1.98172 q -0.26459,0 -0.26459,-0.27782 v -1.14564 a 1.4631458,1.4631458 0 0 0 -1.47902,-1.47902 h -0.34396 a 1.4631458,1.4631458 0 0 0 -1.47902,1.47902 1.9923125,1.9923125 0 0 0 0.66411,1.5875 l 3.60098,3.13002 a 4.4158958,4.4158958 0 0 1 1.524,3.48985 z"
         class="cls-1"
         inkscape:connector-curvature="0"
         style="fill:#005697;stroke-width:0.26458332" />
      <path
         id="path28"
         d="m 272.6069,333.61015 a 3.952875,3.952875 0 0 1 -3.96875,3.96875 h -0.32544 a 3.952875,3.952875 0 0 1 -3.96875,-3.96875 v -1.09273 q 0,-0.27781 0.26458,-0.27781 h 1.97115 q 0.26458,0 0.26458,0.27781 v 1.09273 a 1.5001875,1.5001875 0 0 0 1.46844,1.47902 h 0.34396 a 1.4234583,1.4234583 0 0 0 1.05833,-0.43127 1.4419791,1.4419791 0 0 0 0.42863,-1.05833 2.0293541,2.0293541 0 0 0 -0.64559,-1.61925 q -1.00806,-0.85461 -3.62744,-3.12208 a 4.3894374,4.3894374 0 0 1 -1.52664,-3.46605 3.9475833,3.9475833 0 0 1 3.96875,-3.96875 h 0.34396 a 3.9158333,3.9158333 0 0 1 3.96875,3.96875 v 1.15623 q 0,0.27782 -0.26459,0.27782 h -1.97114 q -0.26459,0 -0.26459,-0.27782 v -1.14564 a 1.4631458,1.4631458 0 0 0 -1.47902,-1.47902 h -0.33337 a 1.4631458,1.4631458 0 0 0 -1.47902,1.47902 1.9923125,1.9923125 0 0 0 0.6641,1.5875 l 3.60098,3.13002 a 4.4158958,4.4158958 0 0 1 1.50813,3.48985 z"
         class="cls-1"
         inkscape:connector-curvature="0"
         style="fill:#005697;stroke-width:0.26458332" />
      <path
         id="path32"
         d="m 204.39202,343.66167 v -3.74385 h 2.46592 v 0.65352 h -1.73567 v 0.87842 h 1.47638 v 0.65087 h -1.47638 v 0.91017 h 1.73567 v 0.65087 z"
         class="cls-2"
         inkscape:connector-curvature="0"
         style="fill:#e32726;stroke-width:0.26458332" />
      <path
         id="path34"
         d="m 210.4404,343.66167 v -2.18016 l -0.71438,1.41816 h -0.49477 l -0.71437,-1.42081 v 2.18017 h -0.73025 v -3.74121 h 0.71966 l 0.97896,2.02406 0.97102,-2.02406 h 0.70644 v 3.74385 z"
         class="cls-2"
         inkscape:connector-curvature="0"
         style="fill:#e32726;stroke-width:0.26458332" />
      <path
         id="path36"
         d="m 213.80854,343.66167 h -1.56633 v -3.74385 h 1.50283 c 0.73025,0 1.15623,0.4101 1.15623,1.05833 a 0.86518749,0.86518749 0 0 1 -0.46302,0.77259 0.87047916,0.87047916 0 0 1 0.51594,0.84137 c 0.003,0.69321 -0.47625,1.07156 -1.14565,1.07156 z m -0.11906,-3.09033 h -0.71437 v 0.86254 h 0.71437 a 0.43391666,0.43391666 0 1 0 0,-0.86254 z m 0.0476,1.51871 h -0.762 v 0.92075 h 0.762 a 0.460375,0.460375 0 1 0 0,-0.92075 z"
         class="cls-2"
         inkscape:connector-curvature="0"
         style="fill:#e32726;stroke-width:0.26458332" />
      <path
         id="path38"
         d="m 215.89875,343.66167 v -3.74385 h 2.46592 v 0.65352 H 216.629 v 0.87842 h 1.47638 v 0.65087 H 216.629 v 0.91017 h 1.73567 v 0.65087 z"
         class="cls-2"
         inkscape:connector-curvature="0"
         style="fill:#e32726;stroke-width:0.26458332" />
      <path
         id="path40"
         d="m 221.62433,343.30449 a 1.3626041,1.3626041 0 0 1 -0.98689,0.35718 h -1.35202 v -3.74385 h 1.35202 a 1.3626041,1.3626041 0 0 1 0.98689,0.35719 c 0.42069,0.42068 0.37836,0.93662 0.37836,1.49754 0,0.56091 0.0423,1.11125 -0.37836,1.53194 z m -0.51064,-2.50296 a 0.65087499,0.65087499 0 0 0 -0.54769,-0.23019 h -0.55298 v 2.43946 h 0.55298 a 0.65352083,0.65352083 0 0 0 0.54769,-0.23019 c 0.13758,-0.16933 0.15875,-0.43656 0.15875,-1.00277 0,-0.56621 -0.0212,-0.80698 -0.15875,-0.97631 z"
         class="cls-2"
         inkscape:connector-curvature="0"
         style="fill:#e32726;stroke-width:0.26458332" />
      <path
         id="path42"
         d="m 225.29411,343.30449 a 1.3626041,1.3626041 0 0 1 -0.98955,0.35718 h -1.35202 v -3.74385 h 1.35202 a 1.36525,1.36525 0 0 1 0.98955,0.35719 c 0.42068,0.42068 0.37835,0.93662 0.37835,1.49754 0,0.56091 0.0423,1.11125 -0.37835,1.53194 z m -0.51065,-2.50296 a 0.65087499,0.65087499 0 0 0 -0.54769,-0.23019 h -0.55298 v 2.43946 h 0.55298 a 0.65352083,0.65352083 0 0 0 0.54769,-0.23019 c 0.13758,-0.16933 0.15875,-0.43656 0.15875,-1.00277 0,-0.56621 -0.0212,-0.80698 -0.1561,-0.97631 z"
         class="cls-2"
         inkscape:connector-curvature="0"
         style="fill:#e32726;stroke-width:0.26458332" />
      <path
         id="path44"
         d="m 226.62761,343.66167 v -3.74385 h 2.46591 v 0.65352 h -1.73566 v 0.87842 h 1.47637 v 0.65087 h -1.47637 v 0.91017 h 1.73566 v 0.65087 z"
         class="cls-2"
         inkscape:connector-curvature="0"
         style="fill:#e32726;stroke-width:0.26458332" />
      <path
         id="path46"
         d="m 232.35319,343.30449 a 1.3626041,1.3626041 0 0 1 -0.98954,0.35718 h -1.35202 v -3.74385 h 1.35202 a 1.36525,1.36525 0 0 1 0.98954,0.35719 c 0.42069,0.42068 0.37835,0.93662 0.37835,1.49754 0,0.56091 0.0423,1.11125 -0.37835,1.53194 z m -0.51065,-2.50296 a 0.65087499,0.65087499 0 0 0 -0.54768,-0.23019 h -0.55298 v 2.43946 h 0.55298 a 0.65352083,0.65352083 0 0 0 0.54768,-0.23019 c 0.13759,-0.16933 0.15875,-0.43656 0.15875,-1.00277 0,-0.56621 -0.0212,-0.80698 -0.15875,-0.97631 z"
         class="cls-2"
         inkscape:connector-curvature="0"
         style="fill:#e32726;stroke-width:0.26458332" />
      <path
         id="path48"
         d="m 235.18423,343.66167 v -3.74385 h 0.73025 v 3.74385 z"
         class="cls-2"
         inkscape:connector-curvature="0"
         style="fill:#e32726;stroke-width:0.26458332" />
      <path
         id="path50"
         d="m 239.18738,343.66167 -1.48167,-2.29658 v 2.29658 h -0.73025 v -3.74385 h 0.64558 l 1.48167,2.29129 v -2.29129 h 0.73025 v 3.74385 z"
         class="cls-2"
         inkscape:connector-curvature="0"
         style="fill:#e32726;stroke-width:0.26458332" />
      <path
         id="path52"
         d="m 243.84669,340.57134 v 3.09033 h -0.73025 v -3.09033 h -0.97896 v -0.65088 h 2.68552 v 0.65088 z"
         class="cls-2"
         inkscape:connector-curvature="0"
         style="fill:#e32726;stroke-width:0.26458332" />
      <path
         id="path54"
         d="m 247.90804,343.28332 a 1.4525625,1.4525625 0 0 1 -2.02406,0 c -0.37835,-0.37836 -0.36777,-0.84667 -0.36777,-1.49225 0,-0.64558 0,-1.1139 0.36777,-1.49225 a 1.4525625,1.4525625 0 0 1 2.02406,0 c 0.37836,0.37835 0.37306,0.84667 0.37306,1.49225 0,0.64558 0.005,1.11389 -0.37306,1.49225 z m -0.52916,-2.54529 a 0.60589583,0.60589583 0 0 0 -0.46832,-0.19844 0.61912499,0.61912499 0 0 0 -0.4736,0.19844 c -0.14288,0.15875 -0.17992,0.33073 -0.17992,1.05833 0,0.7276 0.037,0.89429 0.17992,1.05833 a 0.61912499,0.61912499 0 0 0 0.4736,0.19844 0.60589583,0.60589583 0 0 0 0.46832,-0.19844 c 0.14287,-0.15875 0.1852,-0.33073 0.1852,-1.05833 0,-0.7276 -0.0556,-0.89958 -0.19579,-1.05833 z"
         class="cls-2"
         inkscape:connector-curvature="0"
         style="fill:#e32726;stroke-width:0.26458332" />
      <path
         id="path56"
         d="m 251.90854,343.66167 v -2.18016 l -0.71437,1.41816 h -0.50271 l -0.71967,-1.41816 v 2.18016 h -0.73025 v -3.74385 h 0.71967 l 0.97896,2.02406 0.97102,-2.02406 h 0.71966 v 3.74385 z"
         class="cls-2"
         inkscape:connector-curvature="0"
         style="fill:#e32726;stroke-width:0.26458332" />
      <path
         id="path58"
         d="m 255.98842,343.28332 a 1.4525625,1.4525625 0 0 1 -2.02407,0 c -0.37835,-0.37836 -0.36777,-0.84667 -0.36777,-1.49225 0,-0.64558 0,-1.1139 0.36777,-1.49225 a 1.4525625,1.4525625 0 0 1 2.02407,0 c 0.37835,0.37835 0.37306,0.84667 0.37306,1.49225 0,0.64558 0.005,1.11389 -0.37306,1.49225 z m -0.52917,-2.54529 a 0.60589583,0.60589583 0 0 0 -0.46831,-0.19844 0.61912499,0.61912499 0 0 0 -0.47361,0.19844 c -0.14287,0.15875 -0.17991,0.33073 -0.17991,1.05833 0,0.7276 0.037,0.89429 0.17991,1.05833 a 0.61912499,0.61912499 0 0 0 0.47361,0.19844 0.60589583,0.60589583 0 0 0 0.46831,-0.19844 c 0.14288,-0.15875 0.18521,-0.33073 0.18521,-1.05833 0,-0.7276 -0.0556,-0.89958 -0.19844,-1.05833 z"
         class="cls-2"
         inkscape:connector-curvature="0"
         style="fill:#e32726;stroke-width:0.26458332" />
      <path
         id="path60"
         d="m 259.31688,343.66167 -0.74084,-1.50283 h -0.52916 v 1.49225 h -0.73025 v -3.73327 h 1.47108 a 1.1324167,1.1324167 0 0 1 1.21444,1.14564 1.0080625,1.0080625 0 0 1 -0.68263,0.98425 l 0.83608,1.61396 z m -0.5768,-3.09033 h -0.68791 v 0.9869 h 0.68791 a 0.49477083,0.49477083 0 1 0 0,-0.9869 z"
         class="cls-2"
         inkscape:connector-curvature="0"
         style="fill:#e32726;stroke-width:0.26458332" />
      <path
         id="path62"
         d="m 262.97077,343.66167 -0.73025,-1.50283 h -0.52917 v 1.49225 h -0.7276 v -3.73327 h 1.46579 a 1.1324167,1.1324167 0 0 1 1.21444,1.14564 1.0080625,1.0080625 0 0 1 -0.68263,0.98425 l 0.83609,1.61396 z m -0.56621,-3.09033 h -0.68791 v 0.9869 h 0.68791 a 0.49477083,0.49477083 0 1 0 0,-0.9869 z"
         class="cls-2"
         inkscape:connector-curvature="0"
         style="fill:#e32726;stroke-width:0.26458332" />
      <path
         id="path64"
         d="m 266.89719,343.28332 a 1.4525625,1.4525625 0 0 1 -2.02406,0 c -0.37836,-0.37836 -0.36778,-0.84667 -0.36778,-1.49225 0,-0.64558 0,-1.1139 0.36778,-1.49225 a 1.4525625,1.4525625 0 0 1 2.02406,0 c 0.37835,0.37835 0.37306,0.84667 0.37306,1.49225 0,0.64558 0.005,1.11389 -0.37306,1.49225 z m -0.52917,-2.54529 a 0.60589583,0.60589583 0 0 0 -0.46831,-0.19844 0.61912499,0.61912499 0 0 0 -0.47361,0.19844 c -0.14287,0.15875 -0.17991,0.33073 -0.17991,1.05833 0,0.7276 0.037,0.89429 0.17991,1.05833 a 0.61912499,0.61912499 0 0 0 0.47361,0.19844 0.60589583,0.60589583 0 0 0 0.46831,-0.19844 c 0.14288,-0.15875 0.18521,-0.33073 0.18521,-1.05833 0,-0.7276 -0.0556,-0.89958 -0.19844,-1.05833 z"
         class="cls-2"
         inkscape:connector-curvature="0"
         style="fill:#e32726;stroke-width:0.26458332" />
      <path
         id="path66"
         d="m 271.42421,343.66167 h -0.60854 l -0.68792,-2.27012 -0.68792,2.27012 h -0.60854 l -0.99748,-3.74385 h 0.74348 l 0.57944,2.36008 0.68262,-2.36008 h 0.54769 l 0.68263,2.36008 0.58473,-2.36008 h 0.762 z"
         class="cls-2"
         inkscape:connector-curvature="0"
         style="fill:#e32726;stroke-width:0.26458332" />
      <path
         id="path70"
         d="m 184.22283,346.22284 a 16.66875,16.66875 0 0 0 12.00944,-5.09588 H 172.2134 a 16.66875,16.66875 0 0 0 12.00943,5.09588 z"
         class="cls-3"
         inkscape:connector-curvature="0"
         style="fill:#00aae9;stroke-width:0.26458332" />
      <path
         id="path72"
         d="m 188.9774,334.82988 h -0.68792 l -2.74902,3.72533 h 12.7344 a 16.613187,16.613187 0 0 0 2.60614,-7.71525 h -8.96673 z"
         class="cls-1"
         inkscape:connector-curvature="0"
         style="fill:#005697;stroke-width:0.26458332" />
      <path
         id="path74"
         d="m 170.22902,323.98196 h 4.15661 v -0.85725 h -2.25955 v -0.85725 h 3.78884 v -0.85725 h 2.00554 v -0.85725 h 5.18054 v 0.85725 h 4.89744 v 0.85725 h -0.89694 v 0.85725 h 10.63096 v 0.85725 h 2.26748 a 16.716375,16.716375 0 0 0 -31.82938,0.85725 h 2.05846 z"
         class="cls-1"
         inkscape:connector-curvature="0"
         style="fill:#005697;stroke-width:0.26458332" />
      <path
         id="path76"
         d="m 178.656,339.41246 h 2.7014 v -0.85725 h 1.51871 l 4.11956,-5.58006 -2.61144,-2.98714 h -2.44475 v -0.86255 h 2.23573 v -0.85725 h -3.62479 v 0.85725 h -5.25992 v -0.85725 h -1.19592 v -0.85725 h -2.99243 v -0.86254 h -3.33111 a 16.66875,16.66875 0 0 0 3.66448,13.716 h 7.22048 z"
         class="cls-1"
         inkscape:connector-curvature="0"
         style="fill:#005697;stroke-width:0.26458332" />
      <path
         id="path78"
         d="m 198.66379,326.54842 h 0.66411 v 0.85725 h -1.05834 v 0.86254 h -2.87073 v 0.85725 h -1.5875 v 0.86255 h 2.84957 v -0.86255 h 4.27302 a 16.734896,16.734896 0 0 0 -0.43127,-3.43958 h -1.83621 z"
         class="cls-1"
         inkscape:connector-curvature="0"
         style="fill:#005697;stroke-width:0.26458332" />
      <polygon
         transform="matrix(0.26458333,0,0,0.26458333,167.50646,312.79009)"
         id="polygon80"
         points="78.92,74.22 85.89,64.98 70.25,64.98 78.31,74.22 "
         class="cls-1"
         style="fill:#005697" />
    </g>
  </g>
</svg>
